name C:/MyDriveSym/Projects/mobilecap/Data\Session20210813_0002\mocap\ForceDataProcessed\walkingTS2_forces.mot
datacolumns 19
datarows 29
range 1.28200000 1.29600000
endheader 
time	R_ground_force_vx	R_ground_force_vy	R_ground_force_vz	R_ground_force_px	R_ground_force_py	R_ground_force_pz	R_ground_torque_x	R_ground_torque_y	R_ground_torque_z	L_ground_force_vx	L_ground_force_vy	L_ground_force_vz	L_ground_force_px	L_ground_force_py	L_ground_force_pz	L_ground_torque_x	L_ground_torque_y	L_ground_torque_z	
          1.28200000	          0.00000000	          0.00000000	          0.00000000	          1.23422400	          0.00000000	         -0.19386700	          0.00000000	          0.00000000	          0.00000000	         35.19692400	        754.49215400	         13.24976500	          1.06059300	          0.00600000	         -0.30107000	          0.00000000	          4.32116600	          0.00000000	
          1.28250000	          0.00000000	          0.00000000	          0.00000000	          1.23512600	          0.00000000	         -0.19391900	          0.00000000	          0.00000000	          0.00000000	         35.43133800	        754.68782600	         13.30391900	          1.06060700	          0.00600000	         -0.30106500	          0.00000000	          4.31805700	          0.00000000	
          1.28300000	          0.00000000	          0.00000000	          0.00000000	          1.23602800	          0.00000000	         -0.19397000	          0.00000000	          0.00000000	          0.00000000	         35.66623100	        754.88322700	         13.35796700	          1.06062200	          0.00600000	         -0.30106100	          0.00000000	          4.31494700	          0.00000000	
          1.28350000	          0.00000000	          0.00000000	          0.00000000	          1.23693100	          0.00000000	         -0.19402100	          0.00000000	          0.00000000	          0.00000000	         35.90159800	        755.07833500	         13.41190300	          1.06063600	          0.00600000	         -0.30105700	          0.00000000	          4.31183700	          0.00000000	
          1.28400000	          0.00000000	          0.00000000	          0.00000000	          1.23783300	          0.00000000	         -0.19407300	          0.00000000	          0.00000000	          0.00000000	         36.13743500	        755.27312900	         13.46572100	          1.06065100	          0.00600000	         -0.30105200	          0.00000000	          4.30872700	          0.00000000	
          1.28450000	          0.00000000	          0.00000000	          0.00000000	          1.23873500	          0.00000000	         -0.19412400	          0.00000000	          0.00000000	          0.00000000	         36.37373900	        755.46758600	         13.51941400	          1.06066500	          0.00600000	         -0.30104800	          0.00000000	          4.30561700	          0.00000000	
          1.28500000	          0.00000000	          0.00000000	          0.00000000	          1.23963800	          0.00000000	         -0.19417500	          0.00000000	          0.00000000	          0.00000000	         36.61050300	        755.66168200	         13.57297800	          1.06067900	          0.00600000	         -0.30104300	          0.00000000	          4.30250800	          0.00000000	
          1.28550000	          0.00000000	          0.00000000	          0.00000000	          1.24054000	          0.00000000	         -0.19422600	          0.00000000	          0.00000000	          0.00000000	         36.84772400	        755.85539600	         13.62640600	          1.06069300	          0.00600000	         -0.30103900	          0.00000000	          4.29940000	          0.00000000	
          1.28600000	          0.00000000	          0.00000000	          0.00000000	          1.24144200	          0.00000000	         -0.19427800	          0.00000000	          0.00000000	          0.00000000	         37.08539800	        756.04870400	         13.67969200	          1.06070700	          0.00600000	         -0.30103400	          0.00000000	          4.29629300	          0.00000000	
          1.28650000	          0.00000000	          0.00000000	          0.00000000	          1.24234500	          0.00000000	         -0.19432900	          0.00000000	          0.00000000	          0.00000000	         37.32351900	        756.24158200	         13.73283100	          1.06072100	          0.00600000	         -0.30103000	          0.00000000	          4.29318800	          0.00000000	
          1.28700000	          0.00000000	          0.00000000	          0.00000000	          1.24324700	          0.00000000	         -0.19438000	          0.00000000	          0.00000000	          0.00000000	         37.56208300	        756.43400700	         13.78581600	          1.06073500	          0.00600000	         -0.30102500	          0.00000000	          4.29008400	          0.00000000	
          1.28750000	          0.00000000	          0.00000000	          0.00000000	          1.24414900	          0.00000000	         -0.19443200	          0.00000000	          0.00000000	          0.00000000	         37.80108600	        756.62595500	         13.83864100	          1.06074900	          0.00600000	         -0.30102100	          0.00000000	          4.28698300	          0.00000000	
          1.28800000	          0.00000000	          0.00000000	          0.00000000	          1.24505200	          0.00000000	         -0.19448300	          0.00000000	          0.00000000	          0.00000000	         38.04052200	        756.81740200	         13.89130100	          1.06076200	          0.00600000	         -0.30101600	          0.00000000	          4.28388500	          0.00000000	
          1.28850000	          0.00000000	          0.00000000	          0.00000000	          1.24595400	          0.00000000	         -0.19453400	          0.00000000	          0.00000000	          0.00000000	         38.28038800	        757.00832300	         13.94379000	          1.06077600	          0.00600000	         -0.30101200	          0.00000000	          4.28079000	          0.00000000	
          1.28900000	          0.00000000	          0.00000000	          0.00000000	          1.24685600	          0.00000000	         -0.19458600	          0.00000000	          0.00000000	          0.00000000	         38.52067900	        757.19869300	         13.99610100	          1.06079000	          0.00600000	         -0.30100700	          0.00000000	          4.27769700	          0.00000000	
          1.28950000	          0.00000000	          0.00000000	          0.00000000	          1.24775900	          0.00000000	         -0.19463700	          0.00000000	          0.00000000	          0.00000000	         38.76139000	        757.38848700	         14.04823000	          1.06080300	          0.00600000	         -0.30100200	          0.00000000	          4.27460800	          0.00000000	
          1.29000000	          0.00000000	          0.00000000	          0.00000000	          1.24866100	          0.00000000	         -0.19468800	          0.00000000	          0.00000000	          0.00000000	         39.00251600	        757.57768000	         14.10017000	          1.06081600	          0.00600000	         -0.30099800	          0.00000000	          4.27152300	          0.00000000	
          1.29050000	          0.00000000	          0.00000000	          0.00000000	          1.24956300	          0.00000000	         -0.19474000	          0.00000000	          0.00000000	          0.00000000	         39.24405300	        757.76624700	         14.15191600	          1.06083000	          0.00600000	         -0.30099300	          0.00000000	          4.26844200	          0.00000000	
          1.29100000	          0.00000000	          0.00000000	          0.00000000	          1.25046600	          0.00000000	         -0.19479100	          0.00000000	          0.00000000	          0.00000000	         39.48599600	        757.95416000	         14.20346200	          1.06084300	          0.00600000	         -0.30098800	          0.00000000	          4.26536400	          0.00000000	
          1.29150000	          0.00000000	          0.00000000	          0.00000000	          1.25136800	          0.00000000	         -0.19484200	          0.00000000	          0.00000000	          0.00000000	         39.72834000	        758.14139500	         14.25480300	          1.06085600	          0.00600000	         -0.30098300	          0.00000000	          4.26229200	          0.00000000	
          1.29200000	          0.00000000	          0.00000000	          0.00000000	          1.25227000	          0.00000000	         -0.19489300	          0.00000000	          0.00000000	          0.00000000	         39.97108100	        758.32792400	         14.30593200	          1.06086900	          0.00600000	         -0.30097800	          0.00000000	          4.25922400	          0.00000000	
          1.29250000	          0.00000000	          0.00000000	          0.00000000	          1.25317300	          0.00000000	         -0.19494500	          0.00000000	          0.00000000	          0.00000000	         40.21421400	        758.51372100	         14.35684300	          1.06088200	          0.00600000	         -0.30097400	          0.00000000	          4.25616000	          0.00000000	
          1.29300000	          0.00000000	          0.00000000	          0.00000000	          1.25407500	          0.00000000	         -0.19499600	          0.00000000	          0.00000000	          0.00000000	         40.45773300	        758.69875800	         14.40753300	          1.06089500	          0.00600000	         -0.30096900	          0.00000000	          4.25310200	          0.00000000	
          1.29350000	          0.00000000	          0.00000000	          0.00000000	          1.25497700	          0.00000000	         -0.19504700	          0.00000000	          0.00000000	          0.00000000	         40.70163500	        758.88300700	         14.45799400	          1.06090800	          0.00600000	         -0.30096400	          0.00000000	          4.25004900	          0.00000000	
          1.29400000	          0.00000000	          0.00000000	          0.00000000	          1.25588000	          0.00000000	         -0.19509900	          0.00000000	          0.00000000	          0.00000000	         40.94591400	        759.06644100	         14.50822300	          1.06092100	          0.00600000	         -0.30095900	          0.00000000	          4.24700200	          0.00000000	
          1.29450000	          0.00000000	          0.00000000	          0.00000000	          1.25678200	          0.00000000	         -0.19515000	          0.00000000	          0.00000000	          0.00000000	         41.19056600	        759.24903200	         14.55821200	          1.06093400	          0.00600000	         -0.30095400	          0.00000000	          4.24396100	          0.00000000	
          1.29500000	          0.00000000	          0.00000000	          0.00000000	          1.25768400	          0.00000000	         -0.19520100	          0.00000000	          0.00000000	          0.00000000	         41.43558600	        759.43075000	         14.60795700	          1.06094700	          0.00600000	         -0.30094900	          0.00000000	          4.24092500	          0.00000000	
          1.29550000	          0.00000000	          0.00000000	          0.00000000	          1.25858700	          0.00000000	         -0.19525300	          0.00000000	          0.00000000	          0.00000000	         41.68096800	        759.61156800	         14.65745200	          1.06095900	          0.00600000	         -0.30094400	          0.00000000	          4.23789500	          0.00000000	
          1.29600000	          0.00000000	          0.00000000	          0.00000000	          1.25948900	          0.00000000	         -0.19530400	          0.00000000	          0.00000000	          0.00000000	         41.92670900	        759.79145500	         14.70669200	          1.06097200	          0.00600000	         -0.30093900	          0.00000000	          4.23487100	          0.00000000	
